<svg version="1.1" id="Layer_1" xmlns="http://www.w3.org/2000/svg" xmlns:xlink="http://www.w3.org/1999/xlink" x="0px" y="0px"
	 width="100%" viewBox="0 0 4096 4096" enable-background="new 0 0 4096 4096" xml:space="preserve">
<path fill="#000000" opacity="1.000000" stroke="none" 
	d="
M2570.000000,4098.000000 
	C1713.333374,4098.000000 857.666687,4098.000000 2.000000,4098.000000 
	C2.000000,2732.666748 2.000000,1367.333374 2.000000,2.000000 
	C1367.333374,2.000000 2732.666748,2.000000 4098.000000,2.000000 
	C4098.000000,1367.333374 4098.000000,2732.666748 4098.000000,4098.000000 
	C3589.000000,4098.000000 3080.000000,4098.000000 2570.000000,4098.000000 
M1024.244751,2645.328613 
	C1021.420105,2652.083252 1018.375671,2658.755127 1015.806824,2665.605713 
	C1000.546387,2706.302490 990.314880,2748.019531 985.482666,2791.441406 
	C981.659973,2825.791748 980.513489,2859.740479 983.800781,2894.099121 
	C989.500061,2953.667725 1003.007324,3011.019531 1029.624756,3064.899414 
	C1044.723633,3095.463135 1062.152588,3124.718262 1084.238281,3150.688232 
	C1121.814575,3194.874023 1164.954590,3232.681152 1214.977051,3262.644287 
	C1262.777344,3291.275635 1313.632935,3312.194092 1367.102539,3327.276855 
	C1424.565430,3343.486572 1483.501953,3349.507568 1542.818481,3351.516602 
	C1591.147339,3353.153076 1639.289429,3349.118652 1687.234741,3342.413818 
	C1722.356934,3337.502686 1756.554199,3329.111816 1790.101196,3317.949951 
	C1826.211548,3305.935059 1860.855591,3290.524414 1894.180786,3272.072998 
	C1948.891357,3241.780518 1997.559204,3203.837891 2039.055908,3157.066895 
	C2052.040527,3142.431641 2063.086914,3126.078125 2075.060059,3110.541748 
	C2075.954102,3109.381836 2077.167236,3108.467773 2079.222168,3106.483643 
	C2080.084717,3110.333496 2081.003906,3112.772217 2081.130615,3115.251709 
	C2082.824707,3148.462891 2089.880127,3180.628174 2101.297852,3211.711182 
	C2115.153320,3249.429932 2136.081055,3282.213135 2171.293213,3303.789795 
	C2180.063477,3309.163574 2189.267578,3313.963135 2198.658936,3318.161865 
	C2218.872314,3327.199951 2240.216797,3332.699707 2262.273926,3333.817627 
	C2283.889893,3334.913818 2305.592041,3334.270020 2327.255615,3334.483887 
	C2359.838135,3334.805908 2390.507812,3327.096924 2419.809326,3313.097168 
	C2448.260010,3299.504395 2470.528076,3278.583252 2488.298584,3253.231445 
	C2514.636963,3215.656250 2525.982422,3172.329346 2529.489746,3127.419434 
	C2532.521484,3088.601807 2532.843262,3049.503662 2532.843506,3010.529541 
	C2532.845947,2795.203613 2532.456787,2579.877197 2532.001465,2364.551758 
	C2531.931885,2331.562988 2531.377197,2298.554443 2530.059570,2265.594482 
	C2528.232178,2219.888428 2521.837402,2174.710693 2511.918701,2130.043945 
	C2495.602539,2056.569824 2468.644775,1987.515137 2428.102295,1923.793579 
	C2388.830811,1862.069336 2338.914551,1811.079102 2277.454102,1771.554565 
	C2223.930908,1737.134521 2166.808838,1710.323853 2105.113037,1694.115356 
	C2078.112793,1687.021851 2050.863281,1680.636353 2023.434448,1675.488525 
	C2000.598267,1671.202637 1977.374756,1668.825195 1954.247559,1666.291016 
	C1934.082031,1664.081421 1913.839600,1662.237549 1893.581543,1661.275146 
	C1839.956665,1658.728149 1786.287109,1658.589600 1732.655518,1660.935181 
	C1708.070679,1662.010376 1683.550293,1664.539795 1658.996216,1666.348877 
	C1648.039673,1667.156128 1637.003418,1667.271484 1626.124023,1668.651733 
	C1604.015259,1671.456665 1581.954590,1674.692993 1559.936279,1678.146973 
	C1531.676025,1682.579712 1503.446777,1687.227295 1475.258911,1692.099365 
	C1437.795898,1698.574341 1401.145752,1708.352539 1365.066406,1720.261475 
	C1317.439331,1735.982056 1271.744019,1755.754395 1230.365967,1784.618896 
	C1201.105957,1805.029663 1175.690308,1829.081299 1156.550415,1859.504639 
	C1137.641357,1889.561157 1128.278931,1922.491943 1125.892700,1957.622437 
	C1124.683594,1975.425293 1128.312256,1992.714966 1131.410400,2010.143433 
	C1137.126099,2042.299072 1150.015503,2070.307373 1174.546265,2092.559570 
	C1193.765503,2109.993652 1216.466675,2119.725098 1241.878296,2122.247559 
	C1258.736328,2123.921143 1275.851807,2123.675293 1292.827881,2123.270752 
	C1306.107666,2122.954590 1319.669556,2122.492432 1332.542725,2119.593750 
	C1359.147583,2113.602539 1385.405518,2106.049561 1411.752930,2098.941406 
	C1441.324341,2090.963379 1470.644653,2081.955811 1500.429810,2074.896240 
	C1529.555176,2067.992920 1559.012451,2062.284668 1588.541260,2057.352539 
	C1613.138916,2053.243896 1637.993774,2050.391846 1662.837891,2048.107422 
	C1701.553467,2044.547363 1740.017090,2048.277344 1778.426392,2053.467041 
	C1822.304810,2059.395752 1864.395264,2070.567627 1904.293823,2090.362305 
	C1957.164795,2116.593262 1991.222412,2158.444580 2010.011841,2213.540527 
	C2021.974854,2248.619873 2025.238037,2285.090576 2026.123413,2321.858154 
	C2026.191040,2324.666992 2025.386841,2327.496582 2024.866333,2331.175781 
	C2019.665894,2330.537598 2015.435181,2330.166016 2011.255859,2329.479980 
	C1992.213867,2326.354980 1973.246948,2322.694580 1954.134277,2320.102783 
	C1938.982300,2318.047852 1923.664917,2317.176270 1908.408325,2315.936768 
	C1885.182617,2314.049316 1861.938843,2310.675049 1838.714722,2310.773438 
	C1743.137207,2311.177246 1647.401245,2304.921631 1552.048218,2316.439697 
	C1528.923096,2319.232910 1505.648560,2321.311768 1482.771118,2325.509521 
	C1446.116821,2332.234375 1409.632202,2339.904053 1373.896851,2350.852051 
	C1341.644531,2360.732910 1310.241455,2372.684326 1280.273071,2388.079346 
	C1230.004761,2413.902588 1182.685547,2444.109863 1141.662720,2483.483398 
	C1115.161865,2508.919189 1090.266602,2535.664551 1069.224976,2565.917480 
	C1052.049683,2590.611572 1037.482910,2616.708008 1024.244751,2645.328613 
M765.571228,2829.000000 
	C765.660095,2303.715088 765.717163,1778.430298 765.901550,1253.145386 
	C765.915466,1213.407715 763.793335,1173.860718 757.773987,1134.583008 
	C751.479187,1093.507935 737.612610,1055.208008 713.661987,1021.030090 
	C695.728455,995.438477 673.481750,974.228821 647.590027,956.491943 
	C609.756775,930.574646 567.264160,917.798584 522.598389,912.918518 
	C479.168640,908.173584 435.946442,913.284607 394.367981,926.819153 
	C345.172424,942.833191 303.320892,970.119141 271.846466,1012.145630 
	C248.721207,1043.023926 232.610367,1077.046631 224.542770,1114.726196 
	C221.483704,1129.013428 220.193710,1143.675293 217.249298,1157.992065 
	C213.058365,1178.369995 211.904297,1198.915405 211.920822,1219.620728 
	C211.980957,1294.946411 211.982254,1370.272095 211.993729,1445.597778 
	C212.053177,1835.895874 212.148575,2226.194092 212.145386,2616.492188 
	C212.144196,2762.812012 211.751038,2909.132080 211.976151,3055.451416 
	C212.005768,3074.701416 214.307175,3093.980713 216.170670,3113.187256 
	C219.177155,3144.173584 225.840469,3174.276611 238.530640,3202.935547 
	C257.866364,3246.603027 287.123749,3281.375244 328.809967,3305.231445 
	C370.204254,3328.920898 415.302002,3339.403809 462.466248,3341.211182 
	C493.061615,3342.383789 523.580139,3341.798584 553.962097,3335.545410 
	C574.231445,3331.373535 594.285095,3327.171631 613.570435,3319.574463 
	C646.998535,3306.405762 675.764282,3286.577148 699.780518,3259.854736 
	C732.221008,3223.759033 749.322998,3180.703613 757.614685,3133.500000 
	C763.693726,3098.892822 765.382568,3064.023438 765.372864,3028.981934 
	C765.354614,2962.988037 765.493530,2896.993896 765.571228,2829.000000 
M3508.438232,1759.439941 
	C3499.729980,1764.985962 3491.041748,1770.563721 3482.310547,1776.072876 
	C3436.961426,1804.685181 3395.836914,1838.350220 3360.552490,1878.833252 
	C3337.459229,1905.328735 3317.134766,1933.646973 3305.883545,1967.522583 
	C3305.408691,1968.951904 3303.520508,1969.911499 3301.455322,1971.890747 
	C3300.525146,1969.233765 3299.751953,1967.806519 3299.540771,1966.300415 
	C3297.646484,1952.800537 3295.966553,1939.270020 3294.004883,1925.780396 
	C3288.284668,1886.445068 3279.077881,1848.003418 3265.006592,1810.742554 
	C3254.646729,1783.309814 3240.631836,1757.960938 3220.598389,1736.613281 
	C3182.605225,1696.127930 3135.435791,1674.804688 3079.841797,1672.803345 
	C3065.537354,1672.288208 3051.192627,1673.002441 3036.874268,1672.738403 
	C3013.540771,1672.308350 2991.364258,1677.261353 2969.541504,1685.249878 
	C2926.966064,1700.835571 2894.391113,1729.012085 2868.571533,1765.323853 
	C2845.078613,1798.363281 2834.135498,1836.220459 2828.824707,1876.016113 
	C2824.812500,1906.081665 2820.541992,1936.089844 2821.687256,1966.560059 
	C2821.974854,1974.214111 2821.647217,1981.890137 2821.648438,1989.556152 
	C2821.684814,2199.872314 2821.770752,2410.188477 2821.754150,2620.504639 
	C2821.742188,2774.158447 2821.594971,2927.812500 2821.513672,3081.466309 
	C2821.503418,3100.824951 2822.760986,3120.054199 2826.017334,3139.193359 
	C2831.520996,3171.544434 2839.133057,3203.080811 2856.144043,3231.710205 
	C2881.397949,3274.212158 2916.675781,3304.484131 2963.046875,3322.136475 
	C2991.394287,3332.927246 3020.951660,3337.288086 3050.735352,3340.558350 
	C3079.805176,3343.750000 3108.507812,3339.638672 3137.264893,3335.297119 
	C3168.299072,3330.612061 3197.330811,3320.788330 3224.762451,3305.811523 
	C3251.874756,3291.009033 3274.093262,3270.437500 3292.029053,3245.666504 
	C3315.574707,3213.147217 3327.520264,3175.808105 3332.947510,3136.370361 
	C3337.266602,3104.986572 3339.330078,3073.432129 3339.308838,3041.694092 
	C3339.208740,2892.040039 3339.456543,2742.385742 3339.478516,2592.731689 
	C3339.485840,2543.320068 3342.931396,2494.267822 3351.663574,2445.539307 
	C3359.418213,2402.266846 3372.161621,2360.787109 3391.988037,2321.528076 
	C3411.564941,2282.763672 3436.263428,2247.726074 3469.783447,2219.811523 
	C3516.502686,2180.905273 3569.885254,2155.125244 3629.832031,2144.494873 
	C3664.891357,2138.278076 3700.325684,2134.009277 3735.703857,2129.811279 
	C3765.483643,2126.277832 3795.239014,2123.065918 3824.463379,2115.942871 
	C3860.321533,2107.202393 3893.091309,2092.539307 3920.751709,2067.610107 
	C3945.992676,2044.861572 3961.773682,2016.359619 3970.958496,1984.000488 
	C3975.518066,1967.935181 3977.431885,1951.453003 3978.816406,1934.779907 
	C3981.576416,1901.543945 3979.407471,1868.882568 3970.196533,1836.818604 
	C3960.836182,1804.235596 3944.736328,1775.433960 3920.961182,1751.075073 
	C3907.051025,1736.822876 3890.352783,1726.482056 3872.951172,1717.259766 
	C3849.445312,1704.802612 3824.010010,1695.892456 3797.878418,1694.831543 
	C3751.748291,1692.958740 3705.401367,1690.668579 3659.398193,1699.977783 
	C3635.474854,1704.819092 3612.008301,1710.605347 3589.205811,1719.122314 
	C3561.333740,1729.532715 3535.337891,1743.782959 3508.438232,1759.439941 
M1739.905396,1575.448486 
	C1774.185913,1577.798706 1807.636597,1574.293213 1840.058594,1562.185425 
	C1867.524658,1551.928345 1892.512573,1537.741699 1913.936157,1517.600830 
	C1934.593018,1498.181152 1953.778442,1477.444458 1971.784668,1455.484253 
	C1987.816162,1435.932495 2005.525024,1417.766357 2022.051025,1398.606934 
	C2042.487671,1374.913574 2065.382080,1353.453735 2084.440430,1328.471680 
	C2093.285400,1316.877441 2104.522949,1307.141602 2114.157471,1296.110718 
	C2139.998047,1266.525391 2165.710205,1236.824951 2191.165527,1206.908203 
	C2203.662354,1192.221313 2216.154541,1177.441040 2227.391846,1161.799927 
	C2237.067383,1148.332886 2245.854980,1134.044678 2253.432129,1119.295898 
	C2265.037354,1096.705933 2271.831299,1072.469971 2276.825195,1047.436768 
	C2282.683594,1018.070129 2279.802490,989.560913 2272.030029,961.473022 
	C2260.487549,919.762573 2236.799316,885.138062 2203.252686,858.331238 
	C2164.403076,827.286865 2119.208252,811.762512 2069.303955,810.384033 
	C2055.232422,809.995422 2041.466309,811.951965 2027.580933,813.918213 
	C2005.860962,816.993835 1985.398438,823.700867 1966.113525,833.698181 
	C1939.571045,847.457886 1916.211426,865.739746 1896.004395,887.724609 
	C1878.428345,906.846924 1861.618530,926.675049 1844.538818,946.251343 
	C1817.175415,977.614441 1789.840942,1009.003052 1762.549927,1040.429321 
	C1749.010498,1056.020264 1735.685181,1071.797852 1722.086182,1087.336182 
	C1715.287354,1095.104370 1707.847900,1102.315552 1701.119019,1110.140381 
	C1677.670654,1137.407959 1654.467285,1164.885986 1631.052979,1192.182983 
	C1611.484741,1214.995972 1593.851318,1239.128540 1579.793945,1265.770264 
	C1567.719238,1288.654175 1558.903687,1312.965332 1555.948486,1338.454956 
	C1552.891602,1364.820801 1552.697388,1391.390015 1559.773926,1417.804321 
	C1576.681274,1480.914307 1614.602417,1526.281982 1672.435425,1555.605713 
	C1693.117188,1566.092285 1715.287598,1571.772339 1739.905396,1575.448486 
z"/>
<path fill="#FEFEFE" opacity="1.000000" stroke="none" 
	d="
M1024.596924,2644.662109 
	C1037.482910,2616.708008 1052.049683,2590.611572 1069.224976,2565.917480 
	C1090.266602,2535.664551 1115.161865,2508.919189 1141.662720,2483.483398 
	C1182.685547,2444.109863 1230.004761,2413.902588 1280.273071,2388.079346 
	C1310.241455,2372.684326 1341.644531,2360.732910 1373.896851,2350.852051 
	C1409.632202,2339.904053 1446.116821,2332.234375 1482.771118,2325.509521 
	C1505.648560,2321.311768 1528.923096,2319.232910 1552.048218,2316.439697 
	C1647.401245,2304.921631 1743.137207,2311.177246 1838.714722,2310.773438 
	C1861.938843,2310.675049 1885.182617,2314.049316 1908.408325,2315.936768 
	C1923.664917,2317.176270 1938.982300,2318.047852 1954.134277,2320.102783 
	C1973.246948,2322.694580 1992.213867,2326.354980 2011.255859,2329.479980 
	C2015.435181,2330.166016 2019.665894,2330.537598 2024.866333,2331.175781 
	C2025.386841,2327.496582 2026.191040,2324.666992 2026.123413,2321.858154 
	C2025.238037,2285.090576 2021.974854,2248.619873 2010.011841,2213.540527 
	C1991.222412,2158.444580 1957.164795,2116.593262 1904.293823,2090.362305 
	C1864.395264,2070.567627 1822.304810,2059.395752 1778.426392,2053.467041 
	C1740.017090,2048.277344 1701.553467,2044.547363 1662.837891,2048.107422 
	C1637.993774,2050.391846 1613.138916,2053.243896 1588.541260,2057.352539 
	C1559.012451,2062.284668 1529.555176,2067.992920 1500.429810,2074.896240 
	C1470.644653,2081.955811 1441.324341,2090.963379 1411.752930,2098.941406 
	C1385.405518,2106.049561 1359.147583,2113.602539 1332.542725,2119.593750 
	C1319.669556,2122.492432 1306.107666,2122.954590 1292.827881,2123.270752 
	C1275.851807,2123.675293 1258.736328,2123.921143 1241.878296,2122.247559 
	C1216.466675,2119.725098 1193.765503,2109.993652 1174.546265,2092.559570 
	C1150.015503,2070.307373 1137.126099,2042.299072 1131.410400,2010.143433 
	C1128.312256,1992.714966 1124.683594,1975.425293 1125.892700,1957.622437 
	C1128.278931,1922.491943 1137.641357,1889.561157 1156.550415,1859.504639 
	C1175.690308,1829.081299 1201.105957,1805.029663 1230.365967,1784.618896 
	C1271.744019,1755.754395 1317.439331,1735.982056 1365.066406,1720.261475 
	C1401.145752,1708.352539 1437.795898,1698.574341 1475.258911,1692.099365 
	C1503.446777,1687.227295 1531.676025,1682.579712 1559.936279,1678.146973 
	C1581.954590,1674.692993 1604.015259,1671.456665 1626.124023,1668.651733 
	C1637.003418,1667.271484 1648.039673,1667.156128 1658.996216,1666.348877 
	C1683.550293,1664.539795 1708.070679,1662.010376 1732.655518,1660.935181 
	C1786.287109,1658.589600 1839.956665,1658.728149 1893.581543,1661.275146 
	C1913.839600,1662.237549 1934.082031,1664.081421 1954.247559,1666.291016 
	C1977.374756,1668.825195 2000.598267,1671.202637 2023.434448,1675.488525 
	C2050.863281,1680.636353 2078.112793,1687.021851 2105.113037,1694.115356 
	C2166.808838,1710.323853 2223.930908,1737.134521 2277.454102,1771.554565 
	C2338.914551,1811.079102 2388.830811,1862.069336 2428.102295,1923.793579 
	C2468.644775,1987.515137 2495.602539,2056.569824 2511.918701,2130.043945 
	C2521.837402,2174.710693 2528.232178,2219.888428 2530.059570,2265.594482 
	C2531.377197,2298.554443 2531.931885,2331.562988 2532.001465,2364.551758 
	C2532.456787,2579.877197 2532.845947,2795.203613 2532.843506,3010.529541 
	C2532.843262,3049.503662 2532.521484,3088.601807 2529.489746,3127.419434 
	C2525.982422,3172.329346 2514.636963,3215.656250 2488.298584,3253.231445 
	C2470.528076,3278.583252 2448.260010,3299.504395 2419.809326,3313.097168 
	C2390.507812,3327.096924 2359.838135,3334.805908 2327.255615,3334.483887 
	C2305.592041,3334.270020 2283.889893,3334.913818 2262.273926,3333.817627 
	C2240.216797,3332.699707 2218.872314,3327.199951 2198.658936,3318.161865 
	C2189.267578,3313.963135 2180.063477,3309.163574 2171.293213,3303.789795 
	C2136.081055,3282.213135 2115.153320,3249.429932 2101.297852,3211.711182 
	C2089.880127,3180.628174 2082.824707,3148.462891 2081.130615,3115.251709 
	C2081.003906,3112.772217 2080.084717,3110.333496 2079.222168,3106.483643 
	C2077.167236,3108.467773 2075.954102,3109.381836 2075.060059,3110.541748 
	C2063.086914,3126.078125 2052.040527,3142.431641 2039.055908,3157.066895 
	C1997.559204,3203.837891 1948.891357,3241.780518 1894.180786,3272.072998 
	C1860.855591,3290.524414 1826.211548,3305.935059 1790.101196,3317.949951 
	C1756.554199,3329.111816 1722.356934,3337.502686 1687.234741,3342.413818 
	C1639.289429,3349.118652 1591.147339,3353.153076 1542.818481,3351.516602 
	C1483.501953,3349.507568 1424.565430,3343.486572 1367.102539,3327.276855 
	C1313.632935,3312.194092 1262.777344,3291.275635 1214.977051,3262.644287 
	C1164.954590,3232.681152 1121.814575,3194.874023 1084.238281,3150.688232 
	C1062.152588,3124.718262 1044.723633,3095.463135 1029.624756,3064.899414 
	C1003.007324,3011.019531 989.500061,2953.667725 983.800781,2894.099121 
	C980.513489,2859.740479 981.659973,2825.791748 985.482666,2791.441406 
	C990.314880,2748.019531 1000.546387,2706.302490 1015.806824,2665.605713 
	C1018.375671,2658.755127 1021.420105,2652.083252 1024.596924,2644.662109 
M1913.000244,2593.463867 
	C1862.020264,2593.490479 1811.037964,2593.257568 1760.061401,2593.683838 
	C1742.128540,2593.833984 1724.165527,2595.116455 1706.294312,2596.740479 
	C1679.368286,2599.187500 1653.043579,2604.960938 1627.127808,2612.682129 
	C1587.083496,2624.613525 1551.737305,2644.248047 1523.334839,2675.399414 
	C1495.179932,2706.279541 1478.398071,2741.900146 1478.098267,2784.343018 
	C1478.030029,2794.003662 1478.003296,2803.667236 1478.147339,2813.326416 
	C1478.640869,2846.420654 1489.335571,2876.476318 1508.852783,2902.595459 
	C1549.583618,2957.104492 1604.836426,2987.445557 1672.080078,2996.379639 
	C1675.709839,2996.861816 1679.313721,2997.536133 1682.932007,2998.106201 
	C1699.042236,3000.645020 1715.103394,3003.851807 1731.511597,3000.195068 
	C1734.723633,2999.479248 1738.141235,2999.708252 1741.459229,2999.441895 
	C1767.065674,2997.385986 1792.439819,2993.624023 1817.072754,2986.328369 
	C1852.730957,2975.767334 1886.086548,2960.354736 1916.352295,2938.298828 
	C1943.915527,2918.212646 1967.028564,2894.207520 1984.686890,2865.067627 
	C2005.279663,2831.084473 2015.639038,2793.839355 2019.046387,2754.483887 
	C2019.735962,2746.519775 2020.277100,2738.540039 2020.733643,2730.558838 
	C2023.316284,2685.403320 2025.852295,2640.244873 2028.486572,2593.628662 
	C1989.986328,2593.572998 1952.493286,2593.519043 1913.000244,2593.463867 
z"/>
<path fill="#FEFEFE" opacity="1.000000" stroke="none" 
	d="
M765.569153,2830.000000 
	C765.493530,2896.993896 765.354614,2962.988037 765.372864,3028.981934 
	C765.382568,3064.023438 763.693726,3098.892822 757.614685,3133.500000 
	C749.322998,3180.703613 732.221008,3223.759033 699.780518,3259.854736 
	C675.764282,3286.577148 646.998535,3306.405762 613.570435,3319.574463 
	C594.285095,3327.171631 574.231445,3331.373535 553.962097,3335.545410 
	C523.580139,3341.798584 493.061615,3342.383789 462.466248,3341.211182 
	C415.302002,3339.403809 370.204254,3328.920898 328.809967,3305.231445 
	C287.123749,3281.375244 257.866364,3246.603027 238.530640,3202.935547 
	C225.840469,3174.276611 219.177155,3144.173584 216.170670,3113.187256 
	C214.307175,3093.980713 212.005768,3074.701416 211.976151,3055.451416 
	C211.751038,2909.132080 212.144196,2762.812012 212.145386,2616.492188 
	C212.148575,2226.194092 212.053177,1835.895874 211.993729,1445.597778 
	C211.982254,1370.272095 211.980957,1294.946411 211.920822,1219.620728 
	C211.904297,1198.915405 213.058365,1178.369995 217.249298,1157.992065 
	C220.193710,1143.675293 221.483704,1129.013428 224.542770,1114.726196 
	C232.610367,1077.046631 248.721207,1043.023926 271.846466,1012.145630 
	C303.320892,970.119141 345.172424,942.833191 394.367981,926.819153 
	C435.946442,913.284607 479.168640,908.173584 522.598389,912.918518 
	C567.264160,917.798584 609.756775,930.574646 647.590027,956.491943 
	C673.481750,974.228821 695.728455,995.438477 713.661987,1021.030090 
	C737.612610,1055.208008 751.479187,1093.507935 757.773987,1134.583008 
	C763.793335,1173.860718 765.915466,1213.407715 765.901550,1253.145386 
	C765.717163,1778.430298 765.660095,2303.715088 765.569153,2830.000000 
z"/>
<path fill="#FEFEFE" opacity="1.000000" stroke="none" 
	d="
M3509.040527,1759.025391 
	C3535.337891,1743.782959 3561.333740,1729.532715 3589.205811,1719.122314 
	C3612.008301,1710.605347 3635.474854,1704.819092 3659.398193,1699.977783 
	C3705.401367,1690.668579 3751.748291,1692.958740 3797.878418,1694.831543 
	C3824.010010,1695.892456 3849.445312,1704.802612 3872.951172,1717.259766 
	C3890.352783,1726.482056 3907.051025,1736.822876 3920.961182,1751.075073 
	C3944.736328,1775.433960 3960.836182,1804.235596 3970.196533,1836.818604 
	C3979.407471,1868.882568 3981.576416,1901.543945 3978.816406,1934.779907 
	C3977.431885,1951.453003 3975.518066,1967.935181 3970.958496,1984.000488 
	C3961.773682,2016.359619 3945.992676,2044.861572 3920.751709,2067.610107 
	C3893.091309,2092.539307 3860.321533,2107.202393 3824.463379,2115.942871 
	C3795.239014,2123.065918 3765.483643,2126.277832 3735.703857,2129.811279 
	C3700.325684,2134.009277 3664.891357,2138.278076 3629.832031,2144.494873 
	C3569.885254,2155.125244 3516.502686,2180.905273 3469.783447,2219.811523 
	C3436.263428,2247.726074 3411.564941,2282.763672 3391.988037,2321.528076 
	C3372.161621,2360.787109 3359.418213,2402.266846 3351.663574,2445.539307 
	C3342.931396,2494.267822 3339.485840,2543.320068 3339.478516,2592.731689 
	C3339.456543,2742.385742 3339.208740,2892.040039 3339.308838,3041.694092 
	C3339.330078,3073.432129 3337.266602,3104.986572 3332.947510,3136.370361 
	C3327.520264,3175.808105 3315.574707,3213.147217 3292.029053,3245.666504 
	C3274.093262,3270.437500 3251.874756,3291.009033 3224.762451,3305.811523 
	C3197.330811,3320.788330 3168.299072,3330.612061 3137.264893,3335.297119 
	C3108.507812,3339.638672 3079.805176,3343.750000 3050.735352,3340.558350 
	C3020.951660,3337.288086 2991.394287,3332.927246 2963.046875,3322.136475 
	C2916.675781,3304.484131 2881.397949,3274.212158 2856.144043,3231.710205 
	C2839.133057,3203.080811 2831.520996,3171.544434 2826.017334,3139.193359 
	C2822.760986,3120.054199 2821.503418,3100.824951 2821.513672,3081.466309 
	C2821.594971,2927.812500 2821.742188,2774.158447 2821.754150,2620.504639 
	C2821.770752,2410.188477 2821.684814,2199.872314 2821.648438,1989.556152 
	C2821.647217,1981.890137 2821.974854,1974.214111 2821.687256,1966.560059 
	C2820.541992,1936.089844 2824.812500,1906.081665 2828.824707,1876.016113 
	C2834.135498,1836.220459 2845.078613,1798.363281 2868.571533,1765.323853 
	C2894.391113,1729.012085 2926.966064,1700.835571 2969.541504,1685.249878 
	C2991.364258,1677.261353 3013.540771,1672.308350 3036.874268,1672.738403 
	C3051.192627,1673.002441 3065.537354,1672.288208 3079.841797,1672.803345 
	C3135.435791,1674.804688 3182.605225,1696.127930 3220.598389,1736.613281 
	C3240.631836,1757.960938 3254.646729,1783.309814 3265.006592,1810.742554 
	C3279.077881,1848.003418 3288.284668,1886.445068 3294.004883,1925.780396 
	C3295.966553,1939.270020 3297.646484,1952.800537 3299.540771,1966.300415 
	C3299.751953,1967.806519 3300.525146,1969.233765 3301.455322,1971.890747 
	C3303.520508,1969.911499 3305.408691,1968.951904 3305.883545,1967.522583 
	C3317.134766,1933.646973 3337.459229,1905.328735 3360.552490,1878.833252 
	C3395.836914,1838.350220 3436.961426,1804.685181 3482.310547,1776.072876 
	C3491.041748,1770.563721 3499.729980,1764.985962 3509.040527,1759.025391 
z"/>
<path fill="#FDFDFD" opacity="1.000000" stroke="none" 
	d="
M1739.002808,1575.331543 
	C1715.287598,1571.772339 1693.117188,1566.092285 1672.435425,1555.605713 
	C1614.602417,1526.281982 1576.681274,1480.914307 1559.773926,1417.804321 
	C1552.697388,1391.390015 1552.891602,1364.820801 1555.948486,1338.454956 
	C1558.903687,1312.965332 1567.719238,1288.654175 1579.793945,1265.770264 
	C1593.851318,1239.128540 1611.484741,1214.995972 1631.052979,1192.182983 
	C1654.467285,1164.885986 1677.670654,1137.407959 1701.119019,1110.140381 
	C1707.847900,1102.315552 1715.287354,1095.104370 1722.086182,1087.336182 
	C1735.685181,1071.797852 1749.010498,1056.020264 1762.549927,1040.429321 
	C1789.840942,1009.003052 1817.175415,977.614441 1844.538818,946.251343 
	C1861.618530,926.675049 1878.428345,906.846924 1896.004395,887.724609 
	C1916.211426,865.739746 1939.571045,847.457886 1966.113525,833.698181 
	C1985.398438,823.700867 2005.860962,816.993835 2027.580933,813.918213 
	C2041.466309,811.951965 2055.232422,809.995422 2069.303955,810.384033 
	C2119.208252,811.762512 2164.403076,827.286865 2203.252686,858.331238 
	C2236.799316,885.138062 2260.487549,919.762573 2272.030029,961.473022 
	C2279.802490,989.560913 2282.683594,1018.070129 2276.825195,1047.436768 
	C2271.831299,1072.469971 2265.037354,1096.705933 2253.432129,1119.295898 
	C2245.854980,1134.044678 2237.067383,1148.332886 2227.391846,1161.799927 
	C2216.154541,1177.441040 2203.662354,1192.221313 2191.165527,1206.908203 
	C2165.710205,1236.824951 2139.998047,1266.525391 2114.157471,1296.110718 
	C2104.522949,1307.141602 2093.285400,1316.877441 2084.440430,1328.471680 
	C2065.382080,1353.453735 2042.487671,1374.913574 2022.051025,1398.606934 
	C2005.525024,1417.766357 1987.816162,1435.932495 1971.784668,1455.484253 
	C1953.778442,1477.444458 1934.593018,1498.181152 1913.936157,1517.600830 
	C1892.512573,1537.741699 1867.524658,1551.928345 1840.058594,1562.185425 
	C1807.636597,1574.293213 1774.185913,1577.798706 1739.002808,1575.331543 
M2000.250244,1154.928833 
	C2006.969971,1156.558838 2013.616211,1159.098633 2020.423218,1159.649536 
	C2041.316284,1161.339844 2060.659912,1155.274170 2078.254883,1144.630981 
	C2094.158447,1135.010864 2106.976318,1121.765869 2114.655762,1104.549072 
	C2125.734863,1079.711182 2126.605957,1054.261597 2116.601807,1028.864014 
	C2098.873779,983.857910 2045.949585,957.903381 1998.233643,974.911743 
	C1946.387451,993.392334 1920.099731,1052.173828 1942.713135,1103.855469 
	C1953.623535,1128.790527 1972.553223,1145.912598 2000.250244,1154.928833 
M1874.475464,1381.468506 
	C1886.376953,1369.198730 1893.180908,1354.597656 1897.510864,1337.970215 
	C1904.132446,1312.542847 1898.848267,1289.345825 1885.891235,1268.064087 
	C1865.614502,1234.759888 1816.235718,1212.360840 1778.360596,1227.456299 
	C1754.812134,1236.841553 1735.216797,1249.055298 1723.059814,1271.817139 
	C1708.621460,1298.850342 1707.204956,1326.926270 1718.943115,1354.655518 
	C1732.737183,1387.241821 1758.918091,1406.019409 1793.642212,1410.527832 
	C1824.287720,1414.506958 1851.485840,1404.985352 1874.475464,1381.468506 
z"/>
<path fill="#010101" opacity="1.000000" stroke="none" 
	d="
M1914.000244,2593.464355 
	C1952.493286,2593.519043 1989.986328,2593.572998 2028.486572,2593.628662 
	C2025.852295,2640.244873 2023.316284,2685.403320 2020.733643,2730.558838 
	C2020.277100,2738.540039 2019.735962,2746.519775 2019.046387,2754.483887 
	C2015.639038,2793.839355 2005.279663,2831.084473 1984.686890,2865.067627 
	C1967.028564,2894.207520 1943.915527,2918.212646 1916.352295,2938.298828 
	C1886.086548,2960.354736 1852.730957,2975.767334 1817.072754,2986.328369 
	C1792.439819,2993.624023 1767.065674,2997.385986 1741.459229,2999.441895 
	C1738.141235,2999.708252 1734.723633,2999.479248 1731.511597,3000.195068 
	C1715.103394,3003.851807 1699.042236,3000.645020 1682.932007,2998.106201 
	C1679.313721,2997.536133 1675.709839,2996.861816 1672.080078,2996.379639 
	C1604.836426,2987.445557 1549.583618,2957.104492 1508.852783,2902.595459 
	C1489.335571,2876.476318 1478.640869,2846.420654 1478.147339,2813.326416 
	C1478.003296,2803.667236 1478.030029,2794.003662 1478.098267,2784.343018 
	C1478.398071,2741.900146 1495.179932,2706.279541 1523.334839,2675.399414 
	C1551.737305,2644.248047 1587.083496,2624.613525 1627.127808,2612.682129 
	C1653.043579,2604.960938 1679.368286,2599.187500 1706.294312,2596.740479 
	C1724.165527,2595.116455 1742.128540,2593.833984 1760.061401,2593.683838 
	C1811.037964,2593.257568 1862.020264,2593.490479 1914.000244,2593.464355 
z"/>
<path fill="#020202" opacity="1.000000" stroke="none" 
	d="
M1999.472656,1154.739502 
	C1972.553223,1145.912598 1953.623535,1128.790527 1942.713135,1103.855469 
	C1920.099731,1052.173828 1946.387451,993.392334 1998.233643,974.911743 
	C2045.949585,957.903381 2098.873779,983.857910 2116.601807,1028.864014 
	C2126.605957,1054.261597 2125.734863,1079.711182 2114.655762,1104.549072 
	C2106.976318,1121.765869 2094.158447,1135.010864 2078.254883,1144.630981 
	C2060.659912,1155.274170 2041.316284,1161.339844 2020.423218,1159.649536 
	C2013.616211,1159.098633 2006.969971,1156.558838 1999.472656,1154.739502 
z"/>
<path fill="#020203" opacity="1.000000" stroke="none" 
	d="
M1873.981201,1381.981934 
	C1851.485840,1404.985352 1824.287720,1414.506958 1793.642212,1410.527832 
	C1758.918091,1406.019409 1732.737183,1387.241821 1718.943115,1354.655518 
	C1707.204956,1326.926270 1708.621460,1298.850342 1723.059814,1271.817139 
	C1735.216797,1249.055298 1754.812134,1236.841553 1778.360596,1227.456299 
	C1816.235718,1212.360840 1865.614502,1234.759888 1885.891235,1268.064087 
	C1898.848267,1289.345825 1904.132446,1312.542847 1897.510864,1337.970215 
	C1893.180908,1354.597656 1886.376953,1369.198730 1873.981201,1381.981934 
z"/>
</svg>